<svg width="216" height="657" viewBox="0 0 216 657" fill="none" xmlns="http://www.w3.org/2000/svg">
<g opacity="0.3">
<path d="M136.017 628.484C136.017 612.736 123.76 599.969 108.642 599.969C93.5228 599.969 81.2666 612.736 81.2666 628.484C81.2666 644.233 93.5228 657 108.642 657C123.76 657 136.017 644.233 136.017 628.484Z" fill="#82D5C7"/>
<path d="M134.875 495.693C134.875 518.168 121.059 538.471 100.359 540.384C94.671 540.91 89.9904 540.683 86.8389 539.612C85.3197 539.096 84.3833 538.458 83.8208 537.828C83.3057 537.251 82.903 536.462 82.8 535.188C82.2254 528.089 82.3593 500.4 82.6968 468.341C82.8403 454.718 83.0192 440.364 83.1908 426.598C83.4205 408.17 83.637 390.795 83.7378 377.636C83.7662 373.932 84.5094 371.712 85.4211 370.323C86.2971 368.988 87.6089 367.992 89.656 367.254C91.7895 366.486 94.5533 366.062 98.0511 365.863C101.062 365.692 104.35 365.696 107.99 365.7C108.571 365.701 109.162 365.701 109.761 365.701C123.631 365.701 134.875 376.945 134.875 390.815V495.693Z" stroke="#5547BF" stroke-width="9.12499"/>
<path d="M133.733 269.187C133.733 255.328 122.498 244.093 108.64 244.093C94.7807 244.093 83.5459 255.328 83.5459 269.187C83.5459 283.045 94.7807 294.28 108.64 294.28C122.498 294.28 133.733 283.045 133.733 269.187Z" stroke="#BBB5E5" stroke-width="9.12499"/>
<path d="M205.708 168.62C197.072 169.463 184.999 169.822 175.072 167.029C145.775 158.787 139.011 114.208 108.685 114.394C78.5597 114.579 52.7802 167.469 52.7802 167.469C52.7802 167.469 46.7141 182.625 24.129 184.229C1.54396 185.832 -0.217926 185.854 0.369568 156.537C0.779175 136.096 0.617615 123.672 0.482224 118.023C0.427612 115.743 1.4541 113.568 3.27271 112.183L144.976 4.29211C148.632 1.50838 153.107 0.000167847 157.709 0.000167847H203.024C210.743 0.000167847 217 6.23192 217 13.9192V155.666C217 162.279 212.317 167.975 205.708 168.62Z" fill="#82D5C7" fill-opacity="0.5"/>
</g>
</svg>
