<svg width="220" height="666" viewBox="0 0 220 666" fill="none" xmlns="http://www.w3.org/2000/svg">
<g opacity="0.3">
<path d="M82.0313 28.8844C82.0313 44.8368 94.446 57.7687 109.76 57.7687C125.075 57.7687 137.489 44.8368 137.489 28.8844C137.489 12.932 125.075 2.17065e-06 109.76 4.84829e-06C94.446 7.52593e-06 82.0313 12.932 82.0313 28.8844Z" fill="#82D5C7" fill-opacity="0.5"/>
<path d="M83.1869 163.393C83.1869 140.627 97.1816 120.061 118.149 118.124C123.911 117.591 128.652 117.821 131.844 118.906C133.383 119.429 134.332 120.075 134.901 120.713C135.423 121.297 135.831 122.097 135.935 123.387C136.517 130.578 136.382 158.624 136.04 191.099C135.895 204.898 135.713 219.437 135.54 233.381C135.307 252.048 135.088 269.647 134.985 282.977C134.957 286.728 134.204 288.977 133.28 290.384C132.393 291.736 131.064 292.745 128.991 293.493C126.83 294.271 124.03 294.7 120.487 294.902C117.437 295.075 114.107 295.071 110.42 295.067C109.831 295.066 109.233 295.066 108.625 295.066C94.5761 295.066 83.187 283.676 83.187 269.627L83.1869 163.393Z" stroke="#BBB5E5" stroke-width="9.243"/>
<path d="M84.3428 392.828C84.3428 406.866 95.7229 418.246 109.761 418.246C123.799 418.246 135.179 406.866 135.179 392.828C135.179 378.79 123.799 367.41 109.761 367.41C95.7229 367.41 84.3428 378.79 84.3428 392.828Z" stroke="#82D5C7" stroke-width="9.243"/>
<path d="M11.4378 494.694C20.186 493.84 32.4145 493.477 42.4707 496.306C72.1459 504.655 78.9979 549.811 109.716 549.622C140.231 549.435 166.344 495.86 166.344 495.86C166.344 495.86 172.488 480.508 195.365 478.884C218.242 477.259 220.027 477.237 219.432 506.934C219.017 527.639 219.181 540.224 219.318 545.946C219.373 548.255 218.333 550.458 216.491 551.861L72.9552 661.147C69.2518 663.967 64.7196 665.495 60.0579 665.495L14.1569 665.495C6.33829 665.495 3.16223e-05 659.183 3.02608e-05 651.396L5.15657e-06 507.816C3.98528e-06 501.117 4.74339 495.348 11.4378 494.694Z" fill="#5547BF" fill-opacity="0.7"/>
</g>
</svg>
