<svg width="1512" height="1264" viewBox="0 0 1512 1264" fill="none" xmlns="http://www.w3.org/2000/svg">
<path d="M0 62H1513V1223H0V62Z" fill="#381E72"/>
<path d="M291.697 1.77155e-07C236.726 0.000984453 180.383 4.10353 118.943 14.9448C69.0552 23.7478 29.8877 40.1647 0 62H1513C1474.45 17.9885 1392.78 -3.91062 1244.35 14.9448C905.359 58.0056 697.936 35.5919 524.388 16.8386C442.73 8.0148 368.572 0.00137588 291.736 1.77155e-07C291.723 -5.90474e-08 291.71 -5.90596e-08 291.697 1.77155e-07Z" fill="#381E72"/>
<path d="M1221.34 1264C1276.3 1264 1332.63 1261.28 1394.06 1254.12C1443.94 1248.3 1483.11 1237.44 1513 1223H0C38.5454 1252.1 120.216 1266.59 268.652 1254.12C607.641 1225.64 815.064 1240.46 988.612 1252.86C1070.26 1258.7 1144.41 1264 1221.23 1264C1221.26 1264 1221.3 1264 1221.34 1264Z" fill="#381E72"/>
</svg>
