<svg width="248" height="84" viewBox="0 0 248 84" fill="none" xmlns="http://www.w3.org/2000/svg">
<path d="M66.5729 77.2792C36.3618 77.2792 9.06979 58.7077 6.4986 30.8828C5.79207 23.2369 6.09649 16.9452 7.5365 12.709C8.23071 10.6668 9.08751 9.40818 9.93476 8.65196C10.7104 7.95966 11.7711 7.41834 13.4831 7.27979C23.0255 6.50751 60.2448 6.68745 103.339 7.14117C121.651 7.33398 140.945 7.57446 159.449 7.80511C184.221 8.11388 207.577 8.405 225.265 8.54044C230.243 8.57855 233.228 9.57766 235.095 10.8031C236.889 11.9807 238.229 13.744 239.22 16.4957C240.254 19.3636 240.822 23.0787 241.09 27.7804C241.321 31.8282 241.316 36.2478 241.31 41.1398C241.309 41.9215 241.308 42.7152 241.308 43.5215C241.308 62.1654 226.194 77.2792 207.55 77.2792L66.5729 77.2792Z" stroke="#D0BCFE" stroke-width="12.2658"/>
</svg>
