<svg width="67" height="203" viewBox="0 0 67 203" fill="none" xmlns="http://www.w3.org/2000/svg">
<g opacity="0.3">
<path d="M42.6535 194.189C42.6535 189.323 38.8667 185.378 34.1954 185.378C29.5241 185.378 25.7373 189.323 25.7373 194.189C25.7373 199.055 29.5241 203 34.1954 203C38.8667 203 42.6535 199.055 42.6535 194.189Z" fill="#82D5C7"/>
<path d="M28.1026 166.423C27.4671 166.287 27.1173 166.094 26.9404 165.936C26.8087 165.818 26.7017 165.663 26.6743 165.325C26.499 163.159 26.5395 154.635 26.644 144.713C26.6883 140.506 26.7435 136.072 26.7965 131.818C26.8675 126.123 26.9345 120.752 26.9656 116.685C26.9739 115.599 27.1917 115.009 27.4094 114.678C27.6125 114.368 27.9254 114.114 28.4865 113.912C29.0832 113.697 29.8848 113.57 30.9491 113.509C31.8649 113.457 32.8654 113.458 33.991 113.459C34.1711 113.459 34.3543 113.46 34.5409 113.46C38.5693 113.46 41.835 116.725 41.835 120.754V149.094C41.835 153.659 40.3437 158.563 37.8071 162.026C35.2948 165.454 31.9706 167.247 28.1026 166.423Z" stroke="#5547BF" stroke-width="3.74999"/>
<path d="M41.4821 83.1727C41.4821 79.1475 38.2192 75.8845 34.1942 75.8845C30.1692 75.8845 26.9062 79.1475 26.9062 83.1727C26.9062 87.1979 30.1692 90.4609 34.1942 90.4609C38.2192 90.4609 41.4821 87.1979 41.4821 83.1727Z" stroke="#BBB5E5" stroke-width="3.74999"/>
<path d="M64.1869 52.1002C61.5185 52.3607 57.7885 52.4716 54.7211 51.6086C45.6693 49.062 43.5792 35.2878 34.2094 35.3454C24.9016 35.4025 16.9364 51.7447 16.9364 51.7447C16.9364 51.7447 15.0622 56.4277 8.08402 56.9231C1.10586 57.4185 0.561487 57.4253 0.743004 48.3668C0.869561 42.0509 0.819647 38.2121 0.777813 36.4666C0.760938 35.7624 1.0781 35.0902 1.64 34.6624L45.4224 1.32605C46.5521 0.465928 47.9345 -7.67112e-05 49.3565 -7.67112e-05H63.3575C65.7424 -7.67112e-05 67.6758 1.92541 67.6758 4.30063V48.0976C67.6758 50.141 66.2289 51.9009 64.1869 52.1002Z" fill="#82D5C7" fill-opacity="0.5"/>
</g>
</svg>
