<svg width="67" height="203" viewBox="0 0 67 203" fill="none" xmlns="http://www.w3.org/2000/svg">
<g opacity="0.3">
<path d="M25.0227 8.81079C25.0227 13.6769 28.8097 17.6216 33.4811 17.6216C38.1525 17.6216 41.9395 13.6769 41.9395 8.81079C41.9395 3.94472 38.1525 6.62129e-07 33.4811 1.47891e-06C28.8097 2.29568e-06 25.0227 3.94473 25.0227 8.81079Z" fill="#82D5C7" fill-opacity="0.5"/>
<path d="M25.3755 49.8407C25.3755 42.8963 29.6444 36.6229 36.0403 36.0319C37.7978 35.8695 39.2441 35.9394 40.2178 36.2704C40.6872 36.43 40.9765 36.627 41.1504 36.8217C41.3095 37 41.4339 37.2438 41.4658 37.6373C41.6433 39.8308 41.6019 48.3861 41.4976 58.2919C41.4533 62.5013 41.398 66.9363 41.345 71.1897C41.274 76.8837 41.2071 82.2521 41.176 86.3181C41.1672 87.4624 40.9376 88.1484 40.6559 88.5776C40.3852 88.99 39.9799 89.2979 39.3474 89.5258C38.6882 89.7633 37.8342 89.8941 36.7535 89.9556C35.823 90.0086 34.807 90.0074 33.6825 90.0061C33.5029 90.0059 33.3205 90.0056 33.1352 90.0056C28.8497 90.0056 25.3756 86.5315 25.3756 82.246L25.3755 49.8407Z" stroke="#BBB5E5" stroke-width="2.81945"/>
<path d="M25.7268 119.828C25.7268 124.11 29.1982 127.582 33.4803 127.582C37.7625 127.582 41.2338 124.11 41.2338 119.828C41.2338 115.546 37.7625 112.075 33.4803 112.075C29.1982 112.075 25.7268 115.546 25.7268 119.828Z" stroke="#82D5C7" stroke-width="2.81945"/>
<path d="M3.48894 150.901C6.15748 150.64 9.88762 150.529 12.9551 151.392C22.0071 153.939 24.0973 167.713 33.4674 167.656C42.7755 167.598 50.7409 151.256 50.7409 151.256C50.7409 151.256 52.6152 146.573 59.5935 146.078C66.5719 145.582 67.1163 145.576 66.9348 154.634C66.8082 160.95 66.8581 164.789 66.9 166.534C66.9168 167.239 66.5997 167.911 66.0378 168.339L22.254 201.675C21.1243 202.535 19.7418 203.001 18.3198 203.001L4.31838 203.001C1.93341 203.001 9.64595e-06 201.076 9.23065e-06 198.7L1.57294e-06 154.903C1.21566e-06 152.86 1.44691 151.1 3.48894 150.901Z" fill="#5547BF" fill-opacity="0.7"/>
</g>
</svg>
