<svg width="194" height="41" viewBox="0 0 194 41" fill="none" xmlns="http://www.w3.org/2000/svg">
<path d="M0.472294 7.55915C0.472294 9.93741 2.32314 11.8654 4.60626 11.8654C6.88939 11.8654 8.74023 9.93741 8.74023 7.55915C8.74023 5.18089 6.88939 3.25293 4.60626 3.25293C2.32314 3.25293 0.472294 5.18089 0.472294 7.55915Z" fill="#5547BF" fill-opacity="0.7"/>
<path d="M25.2769 19.3452C25.2769 15.9512 27.3633 12.8851 30.4892 12.5963C31.3482 12.5169 32.055 12.5511 32.5309 12.7129C32.7604 12.7909 32.9018 12.8871 32.9867 12.9823C33.0645 13.0695 33.1253 13.1886 33.1409 13.381C33.2276 14.453 33.2074 18.6343 33.1565 23.4758C33.1348 25.533 33.1078 27.7005 33.0819 29.7793C33.0472 32.5622 33.0145 35.1861 32.9993 37.1734C32.995 37.7326 32.8827 38.0679 32.7451 38.2777C32.6128 38.4793 32.4147 38.6297 32.1055 38.7411C31.7833 38.8572 31.366 38.9211 30.8378 38.9512C30.383 38.9771 29.8865 38.9765 29.3369 38.9759C29.2491 38.9758 29.1599 38.9756 29.0694 38.9756C26.9748 38.9756 25.2769 37.2777 25.2769 35.1832V19.3452Z" stroke="#D0BCFE" stroke-width="1.37799"/>
<path d="M25.9655 5.32026C25.9655 7.41313 27.6621 9.10974 29.7549 9.10974C31.8478 9.10974 33.5444 7.41313 33.5444 5.32026C33.5444 3.2274 31.8478 1.53079 29.7549 1.53079C27.6621 1.53079 25.9655 3.2274 25.9655 5.32026Z" stroke="#D0BCFE" stroke-width="1.37799"/>
<path d="M2.86731 14.3068C4.17154 14.1794 5.99462 14.1253 7.49384 14.5471C11.918 15.7917 12.9395 22.5237 17.5191 22.4956C22.0684 22.4677 25.9614 14.4805 25.9614 14.4805C25.9614 14.4805 26.8775 12.1918 30.2881 11.9496C33.6987 11.7075 33.9648 11.7042 33.8761 16.1315C33.8142 19.2183 33.8386 21.0945 33.8591 21.9476C33.8673 22.2918 33.7123 22.6203 33.4377 22.8294L12.0386 39.1224C11.4865 39.5428 10.8108 39.7705 10.1158 39.7705H3.27269C2.10705 39.7705 1.16211 38.8294 1.16211 37.6686V16.263C1.16211 15.2643 1.86928 14.4042 2.86731 14.3068Z" fill="#5547BF" fill-opacity="0.7"/>
<path d="M43.363 15.0978C43.363 13.7543 44.4309 12.583 45.7745 12.583H50.4252L55.1448 30.4279L59.7266 12.583H66.8577V36.0088H62.3448V17.0959L57.5563 36.0088H52.6644L47.8759 17.0959V36.0088H43.363V15.0978ZM73.9845 24.6852H82.6573C82.2864 23.7252 81.6973 23.0052 80.89 22.5252C80.0827 22.0452 79.2318 21.8052 78.3373 21.8052C77.2464 21.8052 76.33 22.0888 75.5882 22.6561C74.8682 23.2015 74.3336 23.8779 73.9845 24.6852ZM87.5009 28.3179H73.8864C74.1482 29.3652 74.6827 30.2052 75.49 30.8379C76.2973 31.4488 77.29 31.7542 78.4682 31.7542C79.4718 31.7542 80.2682 31.5688 80.8573 31.1979C81.4682 30.827 81.9264 30.3797 82.2318 29.8561H87.0755C86.3555 31.6888 85.2645 33.1724 83.8027 34.307C82.3409 35.4197 80.5627 35.9761 78.4682 35.9761C77.2027 35.9761 76.0136 35.7361 74.9009 35.2561C73.7882 34.7761 72.8064 34.1215 71.9555 33.2924C71.1264 32.4633 70.4718 31.4924 69.9918 30.3797C69.5118 29.267 69.2718 28.067 69.2718 26.7797C69.2718 25.5361 69.5118 24.3579 69.9918 23.2452C70.4718 22.1106 71.1264 21.1288 71.9555 20.2997C72.8064 19.4706 73.7882 18.8161 74.9009 18.3361C76.0136 17.8342 77.2027 17.5833 78.4682 17.5833C79.6464 17.5833 80.89 17.867 82.1991 18.4342C83.5082 19.0015 84.6427 19.8633 85.6027 21.0197C86.3009 21.9142 86.8355 22.9615 87.2064 24.1615C87.5773 25.3615 87.6755 26.747 87.5009 28.3179ZM97.9191 21.5399C95.8865 21.5399 94.853 22.47 94.8186 24.3648V36.0088H90.1679V25.2949C90.1679 20.093 92.7861 17.5093 97.988 17.5093C100.331 17.5093 102.122 18.026 103.431 19.0595C104.74 18.0605 106.532 17.5782 108.874 17.5782C114.076 17.5782 116.66 20.1619 116.625 25.3638V36.0777H114.248C112.732 35.9743 111.975 35.2509 111.975 33.804V24.4337C111.871 22.5389 110.838 21.6088 108.805 21.6088C106.773 21.6088 105.739 22.5389 105.705 24.4337V36.0088H101.088V24.3648C100.985 22.47 99.9516 21.5399 97.9191 21.5399ZM119.241 26.6488C119.241 25.3833 119.481 24.1833 119.961 23.0488C120.441 21.9142 121.106 20.9324 121.957 20.1033C122.786 19.2524 123.768 18.587 124.903 18.107C126.037 17.6052 127.248 17.3542 128.535 17.3542C129.801 17.3542 131.001 17.6052 132.135 18.107C133.27 18.587 134.252 19.2524 135.081 20.1033C135.932 20.9324 136.597 21.9142 137.077 23.0488C137.579 24.1833 137.83 25.3833 137.83 26.6488C137.83 27.9361 137.579 29.147 137.077 30.2815C136.597 31.4161 135.932 32.3979 135.081 33.227C134.252 34.0779 133.27 34.7433 132.135 35.2233C131.001 35.7033 129.801 35.9433 128.535 35.9433C127.248 35.9433 126.037 35.7033 124.903 35.2233C123.768 34.7433 122.786 34.0779 121.957 33.227C121.106 32.3979 120.441 31.4161 119.961 30.2815C119.481 29.147 119.241 27.9361 119.241 26.6488ZM123.692 26.6488C123.692 27.347 123.812 27.9906 124.052 28.5797C124.292 29.1688 124.63 29.6815 125.066 30.1179C125.503 30.5542 126.015 30.8924 126.605 31.1324C127.194 31.3724 127.837 31.4924 128.535 31.4924C129.212 31.4924 129.845 31.3724 130.434 31.1324C131.023 30.8924 131.535 30.5542 131.972 30.1179C132.408 29.6815 132.757 29.1688 133.019 28.5797C133.281 27.9906 133.412 27.347 133.412 26.6488C133.412 25.9724 133.281 25.3397 133.019 24.7506C132.757 24.1615 132.408 23.6488 131.972 23.2124C131.535 22.7761 131.023 22.427 130.434 22.1652C129.845 21.9033 129.212 21.7724 128.535 21.7724C127.837 21.7724 127.194 21.9033 126.605 22.1652C126.015 22.427 125.503 22.7761 125.066 23.2124C124.63 23.6488 124.292 24.1615 124.052 24.7506C123.812 25.3397 123.692 25.9724 123.692 26.6488ZM140.202 36.0088V26.604C140.34 20.7131 143.475 17.7849 149.573 17.7849H150.227V22.5389H148.677C146.128 22.5389 144.853 23.8825 144.853 26.5351V36.0088H140.202ZM156.722 8.44899C157.113 8.44899 157.411 8.54085 157.618 8.72459C157.825 8.90832 157.928 9.16095 157.928 9.48248C157.928 9.71215 157.905 9.88439 157.859 9.99923L156.654 14.0987C156.401 14.8796 155.884 15.27 155.103 15.27H154.69C154.299 15.27 153.989 15.1782 153.76 14.9944C153.553 14.8107 153.45 14.5581 153.45 14.2365C153.45 14.0069 153.473 13.8346 153.519 13.7198L154.759 9.58583C155.011 8.82794 155.528 8.44899 156.309 8.44899H156.722Z" fill="#5547BF"/>
<path d="M175.072 17.7849V28.7399C175.072 31.8748 174.28 33.9418 172.661 34.9408C171.041 35.871 169.25 36.3533 167.286 36.3533C165.392 36.3533 163.704 35.8365 162.119 34.803C160.534 33.804 159.742 31.8059 159.742 28.7399V17.7849H164.324V29.67C164.324 31.7026 165.357 32.7016 167.424 32.7016C169.491 32.7016 170.525 31.7026 170.525 29.67V20.0586C170.49 18.5428 171.214 17.7849 172.729 17.7849H175.072ZM181.236 30.0145C181.339 32.0126 182.786 32.7016 185.026 32.7016C186.955 32.7016 187.919 32.1504 187.919 30.9791C187.919 30.049 186.335 29.2911 183.2 28.7399C179.169 28.0164 177.102 26.2251 177.068 23.3657C177.068 19.4385 180.168 17.5782 184.337 17.5093C186.679 17.5093 188.539 18.026 189.917 19.0595C191.261 20.1275 191.984 21.6088 192.088 23.5035H189.194C188.126 23.4691 187.437 23.0901 187.161 22.3667C186.851 21.5743 185.921 21.1265 184.406 21.1265C182.614 21.1265 181.718 21.6088 181.718 22.5389C181.718 23.4691 182.89 24.1925 185.267 24.6404C188.367 25.2605 190.4 26.0528 191.399 26.983C192.26 27.8786 192.673 28.981 192.673 30.2212C192.673 34.6997 189.16 36.3533 184.337 36.3533C181.787 36.3533 179.858 35.8021 178.618 34.7341C177.24 33.7007 176.551 32.116 176.551 30.0145H181.236Z" fill="#D0BCFE"/>
</svg>
