<svg width="35" height="41" viewBox="0 0 35 41" fill="none" xmlns="http://www.w3.org/2000/svg">
<path d="M0.472294 7.55915C0.472294 9.93741 2.32314 11.8654 4.60626 11.8654C6.88939 11.8654 8.74023 9.93741 8.74023 7.55915C8.74023 5.18089 6.88939 3.25293 4.60626 3.25293C2.32314 3.25293 0.472294 5.18089 0.472294 7.55915Z" fill="#5547BF" fill-opacity="0.7"/>
<path d="M25.2769 19.3452C25.2769 15.9512 27.3633 12.8851 30.4892 12.5963C31.3482 12.5169 32.055 12.5511 32.5309 12.7129C32.7604 12.7909 32.9018 12.8871 32.9867 12.9823C33.0645 13.0695 33.1253 13.1886 33.1409 13.381C33.2276 14.453 33.2074 18.6343 33.1565 23.4758C33.1348 25.533 33.1078 27.7005 33.0819 29.7793C33.0472 32.5622 33.0145 35.1861 32.9993 37.1734C32.995 37.7326 32.8827 38.0679 32.7451 38.2777C32.6128 38.4793 32.4147 38.6297 32.1055 38.7411C31.7833 38.8572 31.366 38.9211 30.8378 38.9512C30.383 38.9771 29.8865 38.9765 29.3369 38.9759C29.2491 38.9758 29.1599 38.9756 29.0694 38.9756C26.9748 38.9756 25.2769 37.2777 25.2769 35.1832V19.3452Z" stroke="#D0BCFE" stroke-width="1.37799"/>
<path d="M25.9645 5.32026C25.9645 7.41313 27.6611 9.10974 29.754 9.10974C31.8468 9.10974 33.5434 7.41313 33.5434 5.32026C33.5434 3.2274 31.8468 1.53079 29.754 1.53079C27.6611 1.53079 25.9645 3.2274 25.9645 5.32026Z" stroke="#D0BCFE" stroke-width="1.37799"/>
<path d="M2.86731 14.3068C4.17154 14.1794 5.99462 14.1253 7.49384 14.5471C11.918 15.7917 12.9395 22.5237 17.5191 22.4956C22.0684 22.4677 25.9614 14.4805 25.9614 14.4805C25.9614 14.4805 26.8775 12.1918 30.2881 11.9496C33.6987 11.7075 33.9648 11.7042 33.8761 16.1315C33.8142 19.2183 33.8386 21.0945 33.8591 21.9476C33.8673 22.2918 33.7123 22.6203 33.4377 22.8294L12.0386 39.1224C11.4865 39.5428 10.8108 39.7705 10.1158 39.7705H3.27269C2.10705 39.7705 1.16211 38.8294 1.16211 37.6686V16.263C1.16211 15.2643 1.86928 14.4042 2.86731 14.3068Z" fill="#5547BF" fill-opacity="0.7"/>
</svg>
