<svg width="182" height="38" viewBox="0 0 182 38" fill="none" xmlns="http://www.w3.org/2000/svg">
<path d="M-0.000392914 6.29791C-0.000392914 8.52758 1.73481 10.3351 3.87529 10.3351C6.01577 10.3351 7.75098 8.52758 7.75098 6.29791C7.75098 4.06825 6.01577 2.26074 3.87529 2.26074C1.73481 2.26074 -0.000392914 4.06825 -0.000392914 6.29791Z" fill="white"/>
<path d="M23.2534 17.3467C23.2534 14.1647 25.2094 11.2902 28.1401 11.0194C28.9454 10.945 29.608 10.9771 30.0542 11.1287C30.2693 11.2019 30.4019 11.2921 30.4815 11.3813C30.5544 11.463 30.6114 11.5747 30.626 11.7551C30.7074 12.7601 30.6884 16.6802 30.6406 21.2192C30.6203 23.1479 30.595 25.18 30.5707 27.1289C30.5382 29.7379 30.5075 32.1979 30.4933 34.061C30.4892 34.5853 30.384 34.8996 30.2549 35.0963C30.1309 35.2853 29.9452 35.4263 29.6554 35.5308C29.3533 35.6396 28.962 35.6995 28.4668 35.7277C28.0405 35.752 27.575 35.7514 27.0597 35.7508C26.9774 35.7507 26.8938 35.7506 26.8089 35.7506C24.8452 35.7506 23.2534 34.1588 23.2534 32.1951V17.3467Z" stroke="white" stroke-width="1.29189"/>
<path d="M23.898 4.19866C23.898 6.16077 25.4886 7.75137 27.4508 7.75137C29.4129 7.75137 31.0035 6.16077 31.0035 4.19866C31.0035 2.23655 29.4129 0.645947 27.4508 0.645947C25.4886 0.645947 23.898 2.23655 23.898 4.19866Z" stroke="white" stroke-width="1.29189"/>
<path d="M2.24417 12.623C3.46691 12.5037 5.17609 12.4529 6.58164 12.8483C10.7294 14.0152 11.6871 20.3266 15.9805 20.3003C20.2456 20.2741 23.8954 12.7859 23.8954 12.7859C23.8954 12.7859 24.7542 10.6402 27.9517 10.4132C31.1493 10.1861 31.3987 10.183 31.3155 14.3337C31.2575 17.2277 31.2804 18.9867 31.2996 19.7865C31.3073 20.1092 31.162 20.4172 30.9045 20.6132L10.8425 35.8882C10.3248 36.2823 9.69137 36.4958 9.0398 36.4958H2.62422C1.53141 36.4958 0.645508 35.6136 0.645508 34.5252V14.4571C0.645508 13.5208 1.30849 12.7144 2.24417 12.623Z" fill="white"/>
<path d="M40.2105 9.12792C40.2105 7.86832 41.2117 6.77021 42.4713 6.77021H46.8314L51.2562 23.5002L55.5517 6.77021H62.2373V28.7324H58.0063V11.0012L53.517 28.7324H48.9308L44.4414 11.0012V28.7324H40.2105V9.12792ZM68.9189 18.1163H77.0497C76.702 17.2163 76.1497 16.5412 75.3929 16.0912C74.636 15.6412 73.8383 15.4162 72.9996 15.4162C71.9769 15.4162 71.1178 15.6821 70.4223 16.214C69.7473 16.7253 69.2461 17.3594 68.9189 18.1163ZM81.5907 21.522H68.8268C69.0723 22.5039 69.5734 23.2914 70.3303 23.8846C71.0871 24.4573 72.0178 24.7437 73.1224 24.7437C74.0633 24.7437 74.8099 24.5698 75.3622 24.2221C75.9349 23.8744 76.3645 23.455 76.6509 22.9641H81.1919C80.5169 24.6823 79.4941 26.0733 78.1236 27.1369C76.7531 28.1801 75.086 28.7017 73.1224 28.7017C71.936 28.7017 70.8212 28.4767 69.778 28.0267C68.7348 27.5767 67.8143 26.9631 67.0165 26.1858C66.2393 25.4085 65.6256 24.4982 65.1756 23.455C64.7256 22.4118 64.5006 21.2868 64.5006 20.08C64.5006 18.914 64.7256 17.8094 65.1756 16.7662C65.6256 15.7026 66.2393 14.7821 67.0165 14.0048C67.8143 13.2275 68.7348 12.6139 69.778 12.1639C70.8212 11.6934 71.936 11.4582 73.1224 11.4582C74.2269 11.4582 75.3929 11.7241 76.6202 12.2559C77.8475 12.7877 78.9111 13.5957 79.8112 14.6798C80.4657 15.5185 80.9669 16.5003 81.3146 17.6254C81.6623 18.7504 81.7544 20.0493 81.5907 21.522ZM91.358 15.1675C89.4524 15.1675 88.4835 16.0396 88.4512 17.8159V28.7324H84.0911V18.6879C84.0911 13.811 86.5457 11.3887 91.4226 11.3887C93.6188 11.3887 95.2983 11.8732 96.5256 12.8421C97.7529 11.9055 99.4323 11.4533 101.629 11.4533C106.505 11.4533 108.928 13.8756 108.895 18.7525V28.797H106.667C105.246 28.7001 104.535 28.0219 104.535 26.6654V17.8805C104.438 16.1041 103.469 15.2321 101.564 15.2321C99.6584 15.2321 98.6895 16.1041 98.6572 17.8805V28.7324H94.3293V17.8159C94.2324 16.0396 93.2635 15.1675 91.358 15.1675ZM111.348 19.9572C111.348 18.7708 111.573 17.6458 112.023 16.5821C112.473 15.5185 113.097 14.598 113.894 13.8207C114.672 13.023 115.592 12.3991 116.656 11.9491C117.719 11.4786 118.855 11.2434 120.062 11.2434C121.248 11.2434 122.373 11.4786 123.437 11.9491C124.5 12.3991 125.421 13.023 126.198 13.8207C126.996 14.598 127.62 15.5185 128.07 16.5821C128.54 17.6458 128.775 18.7708 128.775 19.9572C128.775 21.1641 128.54 22.2993 128.07 23.363C127.62 24.4266 126.996 25.3471 126.198 26.1244C125.421 26.9222 124.5 27.546 123.437 27.996C122.373 28.4461 121.248 28.6711 120.062 28.6711C118.855 28.6711 117.719 28.4461 116.656 27.996C115.592 27.546 114.672 26.9222 113.894 26.1244C113.097 25.3471 112.473 24.4266 112.023 23.363C111.573 22.2993 111.348 21.1641 111.348 19.9572ZM115.521 19.9572C115.521 20.6118 115.633 21.2152 115.858 21.7675C116.083 22.3198 116.4 22.8005 116.809 23.2096C117.218 23.6187 117.699 23.9357 118.251 24.1607C118.804 24.3857 119.407 24.4982 120.062 24.4982C120.696 24.4982 121.289 24.3857 121.841 24.1607C122.393 23.9357 122.874 23.6187 123.283 23.2096C123.692 22.8005 124.02 22.3198 124.265 21.7675C124.51 21.2152 124.633 20.6118 124.633 19.9572C124.633 19.3231 124.51 18.7299 124.265 18.1776C124.02 17.6254 123.692 17.1447 123.283 16.7356C122.874 16.3265 122.393 15.9992 121.841 15.7537C121.289 15.5083 120.696 15.3855 120.062 15.3855C119.407 15.3855 118.804 15.5083 118.251 15.7537C117.699 15.9992 117.218 16.3265 116.809 16.7356C116.4 17.1447 116.083 17.6254 115.858 18.1776C115.633 18.7299 115.521 19.3231 115.521 19.9572ZM131 28.7324V19.9152C131.129 14.3924 134.068 11.6471 139.784 11.6471H140.398V16.1041H138.945C136.555 16.1041 135.36 17.3637 135.36 19.8506V28.7324H131ZM146.487 2.89452C146.853 2.89452 147.133 2.98065 147.327 3.1529C147.521 3.32516 147.618 3.562 147.618 3.86344C147.618 4.07876 147.596 4.24025 147.553 4.34791L146.423 8.19129C146.186 8.92337 145.701 9.2894 144.969 9.2894H144.582C144.216 9.2894 143.925 9.20328 143.71 9.03103C143.516 8.85877 143.419 8.62192 143.419 8.32048C143.419 8.10517 143.441 7.94368 143.484 7.83602L144.646 3.96034C144.883 3.2498 145.368 2.89452 146.1 2.89452H146.487ZM163.691 11.6471V21.9177C163.691 24.8567 162.948 26.7946 161.43 27.7312C159.912 28.6032 158.232 29.0554 156.391 29.0554C154.615 29.0554 153.032 28.5709 151.547 27.602C150.061 26.6654 149.318 24.7921 149.318 21.9177V11.6471H153.614V22.7897C153.614 24.6953 154.583 25.6319 156.521 25.6319C158.458 25.6319 159.427 24.6953 159.427 22.7897V13.7787C159.395 12.3577 160.073 11.6471 161.494 11.6471H163.691ZM169.469 23.1127C169.566 24.9859 170.923 25.6319 173.022 25.6319C174.831 25.6319 175.735 25.1151 175.735 24.017C175.735 23.145 174.25 22.4344 171.31 21.9177C167.532 21.2394 165.594 19.56 165.562 16.8793C165.562 13.1974 168.468 11.4533 172.376 11.3887C174.572 11.3887 176.317 11.8732 177.608 12.8421C178.868 13.8433 179.546 15.2321 179.643 17.0085H176.93C175.929 16.9762 175.283 16.6209 175.025 15.9427C174.734 15.1998 173.862 14.78 172.441 14.78C170.761 14.78 169.922 15.2321 169.922 16.1041C169.922 16.9762 171.02 17.6544 173.248 18.0743C176.155 18.6556 178.061 19.3985 178.997 20.2705C179.805 21.1102 180.192 22.1438 180.192 23.3065C180.192 27.5051 176.898 29.0554 172.376 29.0554C169.986 29.0554 168.178 28.5386 167.015 27.5374C165.723 26.5685 165.077 25.0828 165.077 23.1127H169.469Z" fill="white"/>
</svg>
