<svg width="84" height="248" viewBox="0 0 84 248" fill="none" xmlns="http://www.w3.org/2000/svg">
<path d="M6.58409 66.5729C6.58409 36.3618 25.1556 9.06979 52.9805 6.4986C60.6264 5.79207 66.9181 6.09649 71.1543 7.5365C73.1965 8.23071 74.4551 9.08751 75.2113 9.93476C75.9036 10.7104 76.4449 11.7711 76.5835 13.4831C77.3558 23.0255 77.1758 60.2448 76.7221 103.339C76.5293 121.651 76.2888 140.945 76.0582 159.449C75.7494 184.221 75.4583 207.577 75.3228 225.265C75.2847 230.243 74.2856 233.228 73.0602 235.095C71.8826 236.889 70.1193 238.229 67.3676 239.22C64.4997 240.254 60.7846 240.822 56.0829 241.09C52.0351 241.321 47.6155 241.316 42.7235 241.31C41.9418 241.309 41.148 241.308 40.3418 241.308C21.6979 241.308 6.58409 226.194 6.58409 207.55V66.5729Z" stroke="#82D5C7" stroke-width="12.2658"/>
</svg>
